# Blender v3.2.2 OBJ File: ''
# www.blender.org
mtllib untitled.mtl
o Cube_Cube.001
v -1.000000 -0.164511 1.000000
v -1.000000 0.164511 1.000000
v -1.000000 -0.164511 -1.000000
v -1.000000 0.164511 -1.000000
v 1.000000 -0.164511 1.000000
v 1.000000 0.164511 1.000000
v 1.000000 -0.164511 -1.000000
v 1.000000 0.164511 -1.000000
v -1.000000 -0.164511 -0.592503
v -1.000000 -0.164511 0.592503
v -1.000000 0.164511 0.592503
v -1.000000 0.164511 -0.592503
v 1.000000 -0.164511 0.592503
v 1.000000 -0.164511 -0.592503
v 1.000000 0.164511 -0.592503
v 1.000000 0.164511 0.592503
v 0.611479 -0.164511 -1.000000
v -0.611479 -0.164511 -1.000000
v -0.611479 0.164511 -1.000000
v 0.611479 0.164511 -1.000000
v -0.611479 -0.164511 1.000000
v 0.611479 -0.164511 1.000000
v 0.611479 0.164511 1.000000
v -0.611479 0.164511 1.000000
v -0.611479 0.164511 -0.592502
v 0.611479 0.164511 -0.592502
v -0.611479 0.164511 0.592502
v 0.611479 0.164511 0.592502
v 0.611479 -0.164511 -0.592502
v -0.611479 -0.164511 -0.592502
v 0.611479 -0.164511 0.592502
v -0.611479 -0.164511 0.592502
v -1.000000 -1.850142 0.592503
v -1.000000 -1.850142 1.000000
v -0.611479 -1.850142 -1.000000
v -1.000000 -1.850142 -1.000000
v 1.000000 -1.850142 -0.592503
v 1.000000 -1.850142 -1.000000
v 0.611479 -1.850142 1.000000
v 1.000000 -1.850142 1.000000
v -1.000000 -1.850142 -0.592503
v 1.000000 -1.850142 0.592503
v -0.611479 -1.850142 -0.592502
v -0.611479 -1.850142 0.592502
v 0.611479 -1.850142 -1.000000
v -0.611479 -1.850142 1.000000
v 0.611479 -1.850142 -0.592502
v 0.611479 -1.850142 0.592502
v -1.000000 2.030424 -0.592502
v -1.000000 2.030424 -1.000000
v 0.627736 2.030424 -1.000303
v 1.000000 2.030424 -1.000000
v 1.000000 2.030424 -0.592502
v 0.611479 2.030424 -0.592502
v -0.611479 2.030424 -1.000000
v -0.611479 2.030424 -0.592502
v 1.000000 1.661080 -0.592502
v 0.611479 1.661080 -0.592502
v 1.000000 1.661080 -1.000000
v 0.624518 1.661080 -1.000243
v -1.000000 1.652526 -0.592502
v -1.000000 1.652526 -1.000000
v -0.611479 1.652526 -1.000000
v -0.611479 1.652526 -0.592502
vt 0.625000 0.166667
vt 0.375000 0.250000
vt 0.375000 0.166667
vt 0.625000 0.416667
vt 0.375000 0.500000
vt 0.375000 0.416667
vt 0.625000 0.666667
vt 0.375000 0.750000
vt 0.375000 0.666667
vt 0.625000 0.916667
vt 0.375000 1.000000
vt 0.375000 0.916667
vt 0.375000 0.416667
vt 0.875000 0.666667
vt 0.791667 0.750000
vt 0.791667 0.666667
vt 0.625000 0.583333
vt 0.708333 0.583333
vt 0.708333 0.583333
vt 0.875000 0.583333
vt 0.791667 0.583333
vt 0.291667 0.666667
vt 0.291667 0.666667
vt 0.375000 0.583333
vt 0.291667 0.583333
vt 0.625000 0.500000
vt 0.625000 0.583333
vt 0.625000 0.000000
vt 0.375000 0.083333
vt 0.375000 0.000000
vt 0.625000 0.083333
vt 0.208333 0.583333
vt 0.125000 0.666667
vt 0.125000 0.583333
vt 0.208333 0.666667
vt 0.375000 0.166667
vt 0.291667 0.500000
vt 0.208333 0.500000
vt 0.708333 0.583333
vt 0.708333 0.666667
vt 0.625000 0.166667
vt 0.625000 0.250000
vt 0.625000 0.250000
vt 0.791667 0.500000
vt 0.708333 0.500000
vt 0.708333 0.750000
vt 0.625000 0.750000
vt 0.375000 0.333333
vt 0.375000 0.250000
vt 0.208333 0.750000
vt 0.375000 0.833333
vt 0.625000 0.833333
vt 0.625000 0.250000
vt 0.625000 0.333333
vt 0.375000 0.666667
vt 0.291667 0.750000
vt 0.291667 0.500000
vt 0.375000 0.583333
vt 0.291667 0.583333
vt 0.208333 0.500000
vt 0.125000 0.583333
vt 0.125000 0.500000
vt 0.125000 0.666667
vt 0.208333 0.750000
vt 0.125000 0.750000
vt 0.375000 0.500000
vt 0.208333 0.583333
vt 0.375000 0.000000
vt 0.208333 0.666667
vt 0.375000 0.916667
vt 0.375000 0.750000
vt 0.291667 0.750000
vt 0.791667 0.500000
vt 0.875000 0.583333
vt 0.791667 0.583333
vt 0.708333 0.500000
vt 0.625000 0.583333
vt 0.625000 0.500000
vt 0.791667 0.500000
vt 0.791667 0.583333
vt 0.625000 0.500000
vt 0.625000 0.416667
vt 0.875000 0.583333
vt 0.625000 0.333333
vt 0.625000 0.333333
vt 0.708333 0.500000
vt 0.625000 0.416667
vt 0.625000 1.000000
vt 0.875000 0.750000
vt 0.625000 0.166667
vt 0.375000 0.333333
vt 0.375000 0.083333
vt 0.375000 1.000000
vt 0.375000 0.833333
vt 0.875000 0.500000
vn -1.0000 0.0000 0.0000
vn -0.0000 0.0000 -1.0000
vn 1.0000 0.0000 -0.0000
vn 0.0000 0.0000 1.0000
vn 0.0000 1.0000 0.0000
vn 0.0000 -1.0000 0.0000
vn 0.0070 -1.0000 0.0000
vn 0.0008 0.0000 -1.0000
vn -0.9995 0.0087 -0.0320
vn 0.0006 0.0000 -1.0000
vn -0.0002 0.0000 -1.0000
vn 0.0069 -1.0000 0.0002
vn 0.0006 -0.0002 -1.0000
vn 0.0000 -0.0002 -1.0000
vn -0.0002 -0.0002 -1.0000
usemtl None
s off
f 12/1/1 3/2/1 9/3/1
f 20/4/2 7/5/2 17/6/2
f 16/7/3 5/8/3 13/9/3
f 24/10/4 1/11/4 21/12/4
f 7/5/2 45/13/2 17/6/2
f 11/14/5 24/15/5 27/16/5
f 57/17/4 54/18/4 58/19/4
f 12/20/5 27/16/5 25/21/5
f 13/9/2 48/22/2 31/23/2
f 14/24/6 31/23/6 29/25/6
f 8/26/3 14/24/3 7/5/3
f 15/27/3 13/9/3 14/24/3
f 2/28/1 10/29/1 1/30/1
f 11/31/1 9/3/1 10/29/1
f 30/32/6 10/33/6 9/34/6
f 29/25/6 32/35/6 30/32/6
f 3/2/1 41/36/1 9/3/1
f 17/37/6 30/32/6 18/38/6
f 26/39/5 16/7/5 15/27/5
f 25/21/5 28/40/5 26/39/5
f 61/41/1 50/42/1 62/43/1
f 19/44/5 26/39/5 20/45/5
f 16/7/5 23/46/5 6/47/5
f 27/16/5 23/46/5 28/40/5
f 18/48/2 36/49/2 3/2/2
f 31/23/6 21/50/6 32/35/6
f 6/47/4 22/51/4 5/8/4
f 23/52/4 21/12/4 22/51/4
f 4/53/2 18/48/2 3/2/2
f 19/54/2 17/6/2 18/48/2
f 42/55/6 39/56/6 48/22/6
f 45/57/6 37/58/6 47/59/6
f 35/60/6 41/61/6 36/62/6
f 33/63/6 46/64/6 34/65/6
f 14/24/3 38/66/3 7/5/3
f 9/34/4 43/67/4 30/32/4
f 10/29/1 34/68/1 1/30/1
f 32/35/2 33/63/2 10/33/2
f 5/8/3 42/55/3 13/9/3
f 30/32/3 35/60/3 18/38/3
f 21/50/3 44/69/3 32/35/3
f 1/11/4 46/70/4 21/12/4
f 17/37/1 47/59/1 29/25/1
f 22/51/4 40/71/4 5/8/4
f 29/25/4 37/58/4 14/24/4
f 31/23/1 39/56/1 22/72/1
f 55/73/5 49/74/5 56/75/5
f 51/76/5 53/77/5 52/78/5
f 63/79/7 58/19/7 64/80/7
f 59/81/3 53/77/3 57/17/3
f 59/81/8 51/82/8 52/78/8
f 64/80/4 49/74/4 61/83/4
f 62/43/2 55/84/2 63/85/2
f 56/75/4 58/19/4 54/18/4
f 20/45/9 58/19/9 60/86/9
f 8/26/10 60/87/10 59/81/10
f 8/26/3 57/17/3 15/27/3
f 15/27/4 58/19/4 26/39/4
f 4/53/2 63/85/2 19/54/2
f 25/21/4 61/83/4 12/20/4
f 19/44/3 64/80/3 25/21/3
f 12/1/1 62/43/1 4/53/1
f 55/84/11 60/87/11 63/85/11
f 55/73/5 54/18/5 51/76/5
f 12/1/1 4/53/1 3/2/1
f 20/4/2 8/26/2 7/5/2
f 16/7/3 6/47/3 5/8/3
f 24/10/4 2/88/4 1/11/4
f 7/5/2 38/66/2 45/13/2
f 11/14/5 2/89/5 24/15/5
f 57/17/4 53/77/4 54/18/4
f 12/20/5 11/14/5 27/16/5
f 13/9/2 42/55/2 48/22/2
f 14/24/6 13/9/6 31/23/6
f 8/26/3 15/27/3 14/24/3
f 15/27/3 16/7/3 13/9/3
f 2/28/1 11/31/1 10/29/1
f 11/31/1 12/1/1 9/3/1
f 30/32/6 32/35/6 10/33/6
f 29/25/6 31/23/6 32/35/6
f 3/2/1 36/49/1 41/36/1
f 17/37/6 29/25/6 30/32/6
f 26/39/5 28/40/5 16/7/5
f 25/21/5 27/16/5 28/40/5
f 61/41/1 49/90/1 50/42/1
f 19/44/5 25/21/5 26/39/5
f 16/7/5 28/40/5 23/46/5
f 27/16/5 24/15/5 23/46/5
f 18/48/2 35/91/2 36/49/2
f 31/23/6 22/72/6 21/50/6
f 6/47/4 23/52/4 22/51/4
f 23/52/4 24/10/4 21/12/4
f 4/53/2 19/54/2 18/48/2
f 19/54/2 20/4/2 17/6/2
f 42/55/6 40/71/6 39/56/6
f 45/57/6 38/66/6 37/58/6
f 35/60/6 43/67/6 41/61/6
f 33/63/6 44/69/6 46/64/6
f 14/24/3 37/58/3 38/66/3
f 9/34/4 41/61/4 43/67/4
f 10/29/1 33/92/1 34/68/1
f 32/35/2 44/69/2 33/63/2
f 5/8/3 40/71/3 42/55/3
f 30/32/3 43/67/3 35/60/3
f 21/50/3 46/64/3 44/69/3
f 1/11/4 34/93/4 46/70/4
f 17/37/1 45/57/1 47/59/1
f 22/51/4 39/94/4 40/71/4
f 29/25/4 47/59/4 37/58/4
f 31/23/1 48/22/1 39/56/1
f 55/73/5 50/95/5 49/74/5
f 51/76/5 54/18/5 53/77/5
f 63/79/12 60/86/12 58/19/12
f 59/81/3 52/78/3 53/77/3
f 59/81/13 60/87/13 51/82/13
f 64/80/4 56/75/4 49/74/4
f 62/43/2 50/42/2 55/84/2
f 56/75/4 64/80/4 58/19/4
f 20/45/1 26/39/1 58/19/1
f 8/26/14 20/4/14 60/87/14
f 8/26/3 59/81/3 57/17/3
f 15/27/4 57/17/4 58/19/4
f 4/53/2 62/43/2 63/85/2
f 25/21/4 64/80/4 61/83/4
f 19/44/3 63/79/3 64/80/3
f 12/1/1 61/41/1 62/43/1
f 55/84/15 51/82/15 60/87/15
f 55/73/5 56/75/5 54/18/5
